<mxfile host="app.diagrams.net" modified="2022-06-21T08:24:37.689Z" agent="5.0 (Macintosh)" etag="LiIrXi1MuliVzUYDTVxZ" version="20.0.1" type="github">
  <diagram id="YsCit_2jzlB7fDGn7xRh" name="Page-1">
    <mxGraphModel dx="946" dy="600" grid="1" gridSize="10" guides="1" tooltips="1" connect="1" arrows="1" fold="1" page="1" pageScale="1" pageWidth="827" pageHeight="1169" background="#DAD2D8" math="0" shadow="0">
      <root>
        <mxCell id="0" />
        <mxCell id="1" parent="0" />
      </root>
    </mxGraphModel>
  </diagram>
</mxfile>
